<svg width="140" height="91" viewBox="0 0 140 91" fill="none" xmlns="http://www.w3.org/2000/svg">
<path d="M0.0681818 70V0.181816H27.6136C32.8864 0.181816 37.3864 1.125 41.1136 3.01136C44.8636 4.875 47.7159 7.52273 49.6705 10.9545C51.6477 14.3636 52.6364 18.375 52.6364 22.9886C52.6364 27.625 51.6364 31.6136 49.6364 34.9545C47.6364 38.2727 44.7386 40.8182 40.9432 42.5909C37.1705 44.3636 32.6023 45.25 27.2386 45.25H8.79546V33.3864H24.8523C27.6705 33.3864 30.0114 33 31.875 32.2273C33.7386 31.4545 35.125 30.2955 36.0341 28.75C36.9659 27.2045 37.4318 25.2841 37.4318 22.9886C37.4318 20.6705 36.9659 18.7159 36.0341 17.125C35.125 15.5341 33.7273 14.3295 31.8409 13.5114C29.9773 12.6705 27.625 12.25 24.7841 12.25H14.8295V70H0.0681818ZM37.7727 38.2273L55.125 70H38.8295L21.8523 38.2273H37.7727ZM85.5426 90.7273C80.8381 90.7273 76.804 90.0795 73.4403 88.7841C70.0994 87.5114 67.4403 85.7727 65.4631 83.5682C63.4858 81.3636 62.2017 78.8864 61.6108 76.1364L75.0426 74.3295C75.4517 75.375 76.0994 76.3523 76.9858 77.2614C77.8722 78.1705 79.0426 78.8977 80.4972 79.4432C81.9744 80.0114 83.7699 80.2955 85.8835 80.2955C89.0426 80.2955 91.6449 79.5227 93.6903 77.9773C95.7585 76.4545 96.7926 73.8977 96.7926 70.3068V60.7273H96.179C95.5426 62.1818 94.5881 63.5568 93.3153 64.8523C92.0426 66.1477 90.4062 67.2045 88.4062 68.0227C86.4062 68.8409 84.0199 69.25 81.2472 69.25C77.3153 69.25 73.7358 68.3409 70.5085 66.5227C67.304 64.6818 64.7472 61.875 62.8381 58.1023C60.9517 54.3068 60.0085 49.5114 60.0085 43.7159C60.0085 37.7841 60.9744 32.8295 62.9062 28.8523C64.8381 24.875 67.4063 21.8977 70.6108 19.9205C73.8381 17.9432 77.3722 16.9545 81.2131 16.9545C84.1449 16.9545 86.5994 17.4545 88.5767 18.4545C90.554 19.4318 92.1449 20.6591 93.3494 22.1364C94.5767 23.5909 95.5199 25.0227 96.179 26.4318H96.7244V17.6364H111.145V70.5114C111.145 74.9659 110.054 78.6932 107.872 81.6932C105.69 84.6932 102.668 86.9432 98.804 88.4432C94.9631 89.9659 90.5426 90.7273 85.5426 90.7273ZM85.8494 58.3409C88.1903 58.3409 90.1676 57.7614 91.7812 56.6023C93.4176 55.4205 94.6676 53.7386 95.5312 51.5568C96.4176 49.3523 96.8608 46.7159 96.8608 43.6477C96.8608 40.5795 96.429 37.9205 95.5653 35.6705C94.7017 33.3977 93.4517 31.6364 91.8153 30.3864C90.179 29.1364 88.1903 28.5114 85.8494 28.5114C83.4631 28.5114 81.4517 29.1591 79.8153 30.4545C78.179 31.7273 76.9403 33.5 76.0994 35.7727C75.2585 38.0455 74.8381 40.6705 74.8381 43.6477C74.8381 46.6705 75.2585 49.2841 76.0994 51.4886C76.9631 53.6705 78.2017 55.3636 79.8153 56.5682C81.4517 57.75 83.4631 58.3409 85.8494 58.3409ZM131.19 70.8864C128.94 70.8864 127.009 70.0909 125.395 68.5C123.804 66.8864 123.009 64.9545 123.009 62.7045C123.009 60.4773 123.804 58.5682 125.395 56.9773C127.009 55.3864 128.94 54.5909 131.19 54.5909C133.372 54.5909 135.281 55.3864 136.918 56.9773C138.554 58.5682 139.372 60.4773 139.372 62.7045C139.372 64.2045 138.986 65.5795 138.213 66.8295C137.463 68.0568 136.474 69.0455 135.247 69.7955C134.02 70.5227 132.668 70.8864 131.19 70.8864Z" fill="#DB00EE"/>
</svg>
